<?xml version="1.0" encoding="UTF-8" standalone="no"?>
<!-- Created with Inkscape (http://www.inkscape.org/) -->

<svg
   xmlns:dc="http://purl.org/dc/elements/1.1/"
   xmlns:cc="http://creativecommons.org/ns#"
   xmlns:rdf="http://www.w3.org/1999/02/22-rdf-syntax-ns#"
   xmlns:svg="http://www.w3.org/2000/svg"
   xmlns="http://www.w3.org/2000/svg"
   xmlns:sodipodi="http://sodipodi.sourceforge.net/DTD/sodipodi-0.dtd"
   xmlns:inkscape="http://www.inkscape.org/namespaces/inkscape"
   version="1.1"
   width="1000"
   height="737"
   id="svg2"
   inkscape:version="0.48.3.1 r9886"
   sodipodi:docname="coffee-cup.svg">
  <sodipodi:namedview
     pagecolor="#ffffff"
     bordercolor="#666666"
     borderopacity="1"
     objecttolerance="10"
     gridtolerance="10"
     guidetolerance="10"
     inkscape:pageopacity="0"
     inkscape:pageshadow="2"
     inkscape:window-width="640"
     inkscape:window-height="480"
     id="namedview6"
     showgrid="false"
     inkscape:zoom="0.292"
     inkscape:cx="500"
     inkscape:cy="368.5"
     inkscape:window-x="72"
     inkscape:window-y="24"
     inkscape:window-maximized="0"
     inkscape:current-layer="svg2" />
  <metadata
     id="metadata8">
    <rdf:RDF>
      <cc:Work
         rdf:about="">
        <dc:format>image/svg+xml</dc:format>
        <dc:type
           rdf:resource="http://purl.org/dc/dcmitype/StillImage" />
        <dc:title />
      </cc:Work>
    </rdf:RDF>
  </metadata>
  <defs
     id="defs6" />
  <path
     d="m 463.24144,690.89931 c -5.0922,-0.38622 -19.38104,-0.94583 -31.75298,-1.24359 -12.37193,-0.29775 -22.83058,-0.74297 -23.24144,-0.98937 -0.41086,-0.24641 -4.12202,-0.73509 -8.24702,-1.08597 -13.3701,-1.13727 -17.39864,-1.77259 -23.41516,-3.69266 C 373.33151,682.84948 369.23815,682 367.48848,682 c -1.74966,0 -4.66771,-0.74157 -6.48455,-1.64792 -1.81683,-0.90636 -4.68523,-1.60864 -6.3742,-1.56062 -1.68898,0.048 -3.54809,-0.30874 -4.13136,-0.79281 -0.58327,-0.48407 -2.17151,-1.09511 -3.52943,-1.35785 -4.59988,-0.89005 -27.43123,-8.85809 -33.96894,-11.85502 -8.64161,-3.96137 -16.69572,-6.75673 -17.40994,-6.04251 -0.31779,0.31779 -1.36806,-0.0934 -2.33393,-0.91382 -1.54121,-1.30908 -31.68783,-14.43125 -39.75613,-17.30498 -1.65,-0.58769 -5.46034,-2.85862 -8.46741,-5.0465 -3.00708,-2.18788 -5.70708,-3.99369 -6,-4.01291 -0.29293,-0.0192 -4.80759,-2.07371 -10.03259,-4.56554 -5.225,-2.49182 -13.1,-6.07458 -17.5,-7.96169 C 194.74888,611.75347 171,598.24422 171,595.89991 171,595.40496 170.41123,595 169.69163,595 c -1.67667,0 -19.69027,-13.69265 -26.07044,-19.81689 -5.83212,-5.59817 -14.83166,-14.05627 -17.3274,-16.28494 -3.28165,-2.93047 -7.5468,-8.36628 -8.55113,-10.89817 -0.54543,-1.375 -1.37012,-3.4 -1.83266,-4.5 -5.14641,-12.23921 -8.03009,-26.00614 -7.37314,-35.2 0.99559,-13.93293 1.40072,-17.06418 2.58176,-19.95486 3.30974,-8.10077 4.07934,-10.01122 4.77163,-11.84514 0.41524,-1.1 1.95981,-4.48213 3.43237,-7.51585 1.47256,-3.03372 2.67738,-6.07122 2.67738,-6.75 0,-0.67878 0.3375,-1.23584 0.75,-1.2379 0.4125,-0.002 1.62742,-2.13956 2.69983,-4.75 3.12173,-7.59891 15.28072,-24.85728 23.40412,-33.21961 2.39005,-2.46035 4.86316,-5.17811 5.4958,-6.03945 1.64375,-2.238 16.00583,-14.57194 18.55947,-15.93861 1.17914,-0.63105 7.41751,-4.95015 13.86303,-9.59798 6.44553,-4.64783 12.29738,-8.4506 13.00412,-8.4506 0.70673,0 4.50942,-1.82718 8.45041,-4.06039 3.94099,-2.23322 9.4685,-5.11384 12.28336,-6.40138 C 227.44397,369.36662 250.52185,360 251.40234,360 c 0.38907,0 2.61081,-0.86711 4.93721,-1.92691 2.32641,-1.0598 5.41661,-2.22477 6.86712,-2.58883 l 2.63729,-0.66191 -3.31284,-7.66118 c -7.50265,-17.35038 -8.87353,-20.76504 -11.21643,-27.93841 -2.21949,-6.79555 -6.77091,-23.71018 -7.72876,-28.72276 -0.2102,-1.1 -1.09624,-5.43567 -1.96898,-9.63483 -2.87174,-13.81736 -4.59006,-35.93776 -4.76685,-61.36517 -0.0956,-13.75 0.11127,-27.475 0.45971,-30.5 0.34844,-3.025 0.87689,-7.975 1.17433,-11 0.29743,-3.025 1.22749,-9.22746 2.0668,-13.78324 0.8393,-4.55579 1.28865,-8.6673 0.99854,-9.1367 -0.2901,-0.46939 0.0796,-1.35729 0.82164,-1.9731 0.76378,-0.63388 1.14229,-2.20157 0.87242,-3.61331 C 242.9656,148.0397 243.23239,147 243.88342,147 244.49754,147 245,146.06621 245,144.92492 c 0,-3.22295 18.68555,-27.1713 22.16933,-28.41334 0.91813,-0.32733 3.57638,-2.33836 5.90721,-4.46895 2.33083,-2.13059 5.96197,-4.69929 8.0692,-5.70822 2.10722,-1.00892 3.83648,-2.13701 3.84279,-2.50686 0.006,-0.36984 1.69897,-1.21866 3.76147,-1.88625 2.0625,-0.66759 5.77142,-2.277492 8.24204,-3.577553 C 299.46267,97.063686 301.93026,96 302.47559,96 c 0.54532,0 3.6989,-1.341057 7.00795,-2.980126 C 314.87942,90.347138 338.93099,82 341.23637,82 c 0.50738,0 3.69927,-1.059163 7.09307,-2.353696 6.55706,-2.501121 21.84495,-6.470253 27.67056,-7.183992 1.925,-0.235846 4.625,-0.85108 6,-1.367187 2.47284,-0.92818 18.69417,-3.90335 25.15645,-4.613966 1.83895,-0.202219 5.36855,-0.880793 7.84355,-1.507943 5.5052,-1.394984 7.49991,-1.820948 12,-2.562563 3.42878,-0.565062 5.39047,-0.806069 15.5,-1.90428 2.75,-0.298736 7.25,-0.974989 10,-1.502784 12.09889,-2.322089 18.12765,-2.77801 38.5,-2.911536 15.37104,-0.100746 39.79421,1.162709 45.15864,2.336139 1.28775,0.281686 4.59136,0.741119 7.34136,1.020963 4.52515,0.460487 10.7048,1.48585 17.5,2.9037 3.46349,0.722673 8.08125,1.420871 18,2.721567 7.57909,0.993884 12.47286,2.080894 22.5,4.997722 7.84358,2.281647 15.72661,5.053293 20.97899,7.376146 3.17343,1.40344 6.12657,2.55171 6.56253,2.55171 0.43597,0 2.96748,0.975743 5.62557,2.168317 2.6581,1.192574 5.05791,2.237185 5.33291,2.321358 0.275,0.08417 1.625,0.634257 3,1.222408 1.375,0.588152 4.3,1.75539 6.5,2.593862 2.2,0.838473 4.675,1.78955 5.5,2.113505 0.825,0.323955 3.75,1.920304 6.5,3.547441 2.75,1.627137 6.4625,3.701508 8.25,4.609712 1.7875,0.908204 3.25,2.050007 3.25,2.537337 0,0.48733 0.675,0.88606 1.5,0.88606 0.825,0 1.5,0.40598 1.5,0.90217 0,0.4962 1.26657,1.34371 2.81461,1.88336 3.36751,1.17392 16.18539,13.53912 16.18539,15.61378 0,0.80181 0.5625,2.07148 1.25,2.82149 1.89385,2.06606 3.59118,4.84097 5.80337,9.48778 1.10197,2.31472 2.46219,4.49202 3.02273,4.83845 0.56053,0.34643 0.79116,2.06446 0.5125,3.81784 -0.27866,1.75339 0.10043,4.95384 0.84241,7.11213 0.78885,2.29462 1.40075,8.72014 1.47353,15.47358 0.14996,13.91528 1.03692,23.04942 2.2382,23.04942 0.48642,0 1.66579,-0.4282 2.62083,-0.95156 3.50044,-1.91822 8.95483,-4.07721 18.23643,-7.21846 8.97779,-3.03843 10.32454,-3.21832 24.5,-3.27257 15.65289,-0.0599 14.95129,-0.1915 29,5.43916 1.1,0.44087 3.575,1.38395 5.5,2.09574 1.925,0.71178 3.725,1.55606 4,1.87618 0.275,0.32012 3.06407,2.11405 6.19794,3.98651 3.13386,1.87246 5.4698,3.77359 5.19098,4.22473 -0.45448,0.73537 0.96247,1.22065 2.80014,0.959 0.37898,-0.054 0.97181,0.79276 1.31739,1.88158 0.34558,1.08883 1.03489,1.97969 1.53179,1.97969 1.08254,0 10.96176,9.9963 10.96176,11.09167 0,0.42101 0.57145,1.36012 1.26989,2.0869 1.91843,1.99628 6.74926,22.97777 7.90225,34.32143 0.29867,2.93844 -1.60555,14.54079 -3.33917,20.34548 -1.09308,3.65999 -2.67869,9.12952 -3.52357,12.15452 -0.84487,3.025 -1.84817,5.725 -2.22954,6 -0.38138,0.275 -1.32522,2.075 -2.09743,4 -2.08676,5.20196 -8.85382,16.80182 -13.17894,22.59087 -2.09192,2.79998 -3.80349,5.39209 -3.80349,5.76025 0,2.28751 -15.84974,21.54389 -25.75,31.28453 -1.7875,1.75869 -3.25,3.58279 -3.25,4.05358 0,0.47078 -1.61504,1.72572 -3.58898,2.78875 -1.97394,1.06304 -4.3453,2.8943 -5.26969,4.06948 -0.92439,1.17517 -3.47185,3.28509 -5.66102,4.68871 -2.18917,1.40363 -5.6919,4.38508 -7.78385,6.62545 l -3.80355,4.0734 2.80355,0.68414 c 3.7943,0.92591 16.98432,6.15946 21.30354,8.45285 1.925,1.02212 7.32673,3.5938 12.00383,5.71485 7.7361,3.5083 12.85302,6.62277 28.88395,17.58057 18.66462,12.75802 27.84552,23.23528 36.04323,41.13257 2.77116,6.05 5.04533,11.76094 5.05373,12.69098 0.008,0.93004 0.41388,1.93735 0.90109,2.23846 0.4872,0.30111 1.64258,3.59016 2.56749,7.30901 0.92492,3.71885 2.13682,8.50734 2.69312,10.64107 1.32862,5.09603 1.2863,17.53571 -0.0929,27.30114 -1.18677,8.40313 -3.04931,16.50908 -3.97954,17.31934 -0.99425,0.86602 -3.10093,4.39372 -4.32957,7.25 -0.65062,1.5125 -1.53428,2.75 -1.9637,2.75 -0.42942,0 -0.78076,0.8449 -0.78076,1.87756 0,1.03265 -0.675,2.43775 -1.5,3.12244 -0.825,0.68469 -1.5,1.76226 -1.5,2.3946 0,0.63234 -1.28447,2.71474 -2.85437,4.62756 -1.5699,1.91281 -3.58441,4.89771 -4.47669,6.6331 -0.89227,1.73539 -2.23747,3.77041 -2.98932,4.52226 -0.75185,0.75185 -2.56527,3.26518 -4.02981,5.58516 -3.2407,5.1336 -26.13375,28.31294 -29.74024,30.11216 -1.42473,0.71077 -4.12473,2.6224 -6,4.24805 -1.87526,1.62565 -4.85079,3.65422 -6.61228,4.50792 -1.76149,0.8537 -4.37217,2.63601 -5.80152,3.96069 -1.42935,1.32467 -3.19553,2.4085 -3.92485,2.4085 -0.72932,0 -1.89312,0.6833 -2.58624,1.51845 -0.69311,0.83515 -2.88571,2.2818 -4.87244,3.21478 -1.98673,0.93298 -6.19974,3.15024 -9.36224,4.92725 -3.1625,1.777 -5.75689,2.91786 -5.76531,2.53522 -0.008,-0.38263 -0.34592,-0.24498 -0.75,0.30589 -0.40408,0.55088 -1.85969,1.51908 -3.23469,2.15156 -1.375,0.63248 -6.55,3.01281 -11.5,5.28962 -12.87262,5.9209 -15.5,7.28511 -15.5,8.04803 0,0.37173 -0.5625,0.67609 -1.25,0.67637 -1.4347,5.7e-4 -4.49205,1.3471 -21.56204,9.49637 -6.77162,3.2328 -12.80364,5.57398 -13.4045,5.20263 -0.62517,-0.38637 -0.80877,-0.21615 -0.42924,0.39795 0.39648,0.64152 -0.64742,1.35749 -2.59549,1.78014 -1.7923,0.38885 -3.50326,1.08911 -3.80214,1.55612 -0.29887,0.46701 -1.42387,1.00877 -2.5,1.20391 -1.07612,0.19514 -3.53159,1.07656 -5.45659,1.9587 -4.61205,2.1135 -25.46195,8.73701 -27.5029,8.73701 -0.87803,0 -2.96808,0.70931 -4.64455,1.57625 -1.67648,0.86694 -3.79163,1.74151 -4.70034,1.9435 -6.41821,1.4266 -17.11253,4.75971 -19.40221,6.04711 -1.5125,0.85042 -2.75,1.24067 -2.75,0.86723 0,-0.37344 -0.5625,-0.21533 -1.25,0.35135 -1.18327,0.97533 -15.17709,5.42054 -22.75,7.22666 -8.01493,1.91154 -19.61235,2.85981 -42.5,3.47503 -8.25,0.22176 -22.65,0.66843 -32,0.9926 -29.58507,1.02574 -44.72298,1.1428 -54.25856,0.41958 z M 524.5,659.52962 c 15.23015,-1.53734 19.76294,-1.95641 38.25556,-3.5368 6.74055,-0.57605 15.74055,-1.47102 20,-1.98882 4.25944,-0.5178 13.36944,-1.62077 20.24444,-2.45104 23.54112,-2.84297 28.28604,-3.54533 29.39235,-4.35071 0.60921,-0.4435 2.68265,-0.91787 4.60765,-1.05416 1.925,-0.13629 7.325,-1.53562 12,-3.10961 4.675,-1.574 16.15,-4.9964 25.5,-7.60534 9.35,-2.60894 20.15,-6.0571 24,-7.66257 3.85,-1.60547 8.575,-3.38242 10.5,-3.94877 1.925,-0.56636 4.01513,-1.44874 4.64474,-1.96085 0.62961,-0.51212 1.52961,-0.84389 2,-0.73728 0.47039,0.10662 1.53026,-0.0677 2.35526,-0.38747 0.825,-0.31972 3.99265,-1.47436 7.03923,-2.56586 5.9286,-2.12405 19.45993,-8.61474 32.46077,-15.57072 4.4,-2.35419 12.10578,-6.39153 17.12395,-8.97189 9.25496,-4.75891 25.59983,-15.22155 26.20938,-16.77708 0.18334,-0.46786 0.79748,-0.85065 1.36477,-0.85065 1.74516,0 12.4194,-8.303 14.57497,-11.33719 1.11967,-1.57605 4.24598,-5.18243 6.94736,-8.01418 2.70139,-2.83175 6.34281,-7.2524 8.09205,-9.82366 1.74925,-2.57127 3.75935,-5.27127 4.4669,-6 5.30897,-5.46793 14.18853,-22.87457 16.74483,-32.82497 1.77453,-6.90737 2.08604,-10.28 1.66257,-18 -0.50961,-9.29027 -2.56816,-19.49952 -5.14172,-25.5 -0.70767,-1.65 -2.48037,-6.18718 -3.93933,-10.08262 -2.5499,-6.80825 -7.52412,-15.30328 -15.1758,-25.91738 -3.74605,-5.19638 -21.32462,-19.4536 -34.47106,-27.95799 -6.00122,-3.88216 -27.01232,-14.77495 -28.95887,-15.01315 -0.275,-0.0337 -3.2,-1.00737 -6.5,-2.16383 -3.3,-1.15646 -8.759,-3.02418 -12.13111,-4.1505 l -6.13111,-2.04784 -4.36889,3.88827 c -2.40289,2.13855 -4.70639,3.90105 -5.11889,3.91666 -0.4125,0.0156 -0.75,0.40729 -0.75,0.87039 0,0.46311 3.2625,2.07697 7.25,3.58636 3.9875,1.50939 9.725,3.6777 12.75,4.81847 3.025,1.14077 6.175,2.64185 7,3.33573 0.825,0.69388 2.85,1.57439 4.5,1.95667 1.65,0.38229 4.575,1.90026 6.5,3.37328 1.925,1.47302 5.3,3.72074 7.5,4.99493 2.2,1.2742 5.125,3.7017 6.5,5.39447 1.375,1.69276 4.40101,5.24441 6.72447,7.89255 2.32346,2.64815 5.51942,7.40022 7.10213,10.56017 1.58272,3.15995 3.8386,7.32036 5.01309,9.24536 3.09347,5.07025 3.97842,7.35891 6.34049,16.39781 3.02978,11.59399 3.03618,11.6481 3.26259,27.60219 0.22272,15.69361 -1.13961,25.11951 -5.74553,39.75308 -2.38302,7.57113 -7.33084,19.1697 -8.63712,20.24692 -0.33347,0.275 -1.3882,1.72896 -2.34384,3.23103 -4.16485,6.54627 -13.94675,16.27644 -25.21628,25.08292 -13.03841,10.18875 -17.5733,13.26514 -25.91493,17.58024 -4.35322,2.2519 -8.62822,4.71767 -9.5,5.4795 -0.87179,0.76182 -3.16007,2.17719 -5.08507,3.14525 -1.925,0.96807 -3.725,2.042 -4,2.3865 -0.50173,0.62854 -20.57275,10.23318 -29,13.87745 -10.23489,4.42596 -23.96556,9.19369 -31,10.7642 -4.125,0.92095 -7.95,2.01244 -8.5,2.42553 -0.55,0.4131 -3.09912,1.02438 -5.66471,1.35841 -2.56559,0.33403 -6.32133,1.5378 -8.34609,2.67504 -3.4183,1.91994 -7.4892,1.9598 -7.4892,0.0733 0,-0.4322 -2.25,-0.56962 -5,-0.30538 -4.3952,0.42232 -4.99987,0.25337 -4.99896,-1.39679 8.4e-4,-1.51414 1.49983,-2.23794 7.75,-3.74214 4.26193,-1.02569 9.09896,-2.46999 10.74896,-3.20954 2.8328,-1.2697 11.82628,-4.41534 14,-4.89676 3.58641,-0.7943 28.532,-12.79381 35.77259,-17.20758 3.42507,-2.08789 7.44696,-4.47679 8.93751,-5.30868 14.22951,-7.94159 24.93741,-15.45578 30.90899,-21.69016 5.98431,-6.24767 20.80511,-28.2271 25.99823,-38.55572 3.76455,-7.4873 9.31356,-26.01432 10.36781,-34.61597 0.24609,-2.00787 0.95498,-7.47568 1.57531,-12.15068 2.0508,-15.45533 -0.9707,-34.40779 -7.45999,-46.79304 -1.26673,-2.41765 -1.46821,-2.2017 -8.46253,9.07076 -3.9407,6.35106 -8.37053,13.04923 -9.84408,14.88483 -5.96896,7.43553 -43.1679,43.35647 -48.29384,46.63465 -3.025,1.93457 -9.1,6.26924 -13.5,9.6326 -13.31514,10.17808 -20.89199,14.29558 -35,19.02007 -13.30289,4.45488 -17.98244,5.53455 -32.5,7.49838 -8.4948,1.14912 -43.67626,0.54381 -49,-0.84306 -1.925,-0.50147 -8,-2.10706 -13.5,-3.56796 -5.5,-1.4609 -10.95056,-2.85199 -12.11235,-3.09131 -1.16179,-0.23931 -8.58679,-2.73701 -16.5,-5.55043 -7.91321,-2.81343 -16.18765,-5.70722 -18.38765,-6.43065 -5.1504,-1.6936 -14.47078,-5.51505 -21.67923,-8.8887 -7.43272,-3.47861 -13.52394,-4.41564 -35.82077,-5.51037 -10.175,-0.49958 -21.875,-1.66093 -26,-2.58079 -19.13868,-4.26783 -42.61045,-14.58022 -52.58895,-23.10512 C 368.59138,487.97094 365.86286,486 365.34767,486 c -0.51518,0 -2.59388,-2.17304 -4.61932,-4.82898 -2.02545,-2.65593 -8.53042,-9.572 -14.45549,-15.36904 -16.63967,-16.2801 -27.06003,-27.39569 -35.7833,-38.17071 C 302.77399,418.10096 292,403.3757 292,402.36081 c 0,-0.27184 -1.07881,-1.92673 -2.39736,-3.67753 -3.69448,-4.90562 -13.90834,-22.38279 -17.63946,-30.18328 -1.84153,-3.85 -3.45005,-7.15095 -3.57449,-7.33545 -0.12445,-0.18451 -1.72531,0.32146 -3.55748,1.12437 -1.83216,0.80291 -5.35621,2.01807 -7.83121,2.70036 -13.61491,3.75326 -43.3388,21.07097 -62.16736,36.2199 -9.75016,7.84471 -26.95647,24.77758 -31.28805,30.79082 -10.12696,14.05859 -13.97076,21.33598 -10.29459,19.49053 0.6875,-0.34513 -0.25331,0.70766 -2.0907,2.33953 -4.35165,3.8649 -9.95662,19.83105 -13.78301,39.26184 -2.74871,13.95826 -2.75236,14.03332 -1.16207,23.93534 3.3962,21.14657 17.69947,41.73332 45.28578,65.18001 9.94099,8.44925 27.15126,21.01271 41,29.92994 4.95,3.18731 10.8,7.07812 13,8.64624 10.52289,7.50054 32.97627,16.67092 43.5,17.76623 8.20409,0.85387 20.37034,3.21218 30.5,5.91213 14.31767,3.81621 22.31146,5.24889 36.5,6.5417 6.875,0.62642 17.60722,2.0069 23.84937,3.06773 6.24216,1.06083 14.43161,1.92878 18.19879,1.92878 3.76717,0 11.93495,0.64444 18.15062,1.4321 6.21567,0.78765 17.31802,1.66695 24.67189,1.954 7.35386,0.28704 13.6021,0.75334 13.88498,1.03621 1.19271,1.19271 66.30574,0.46381 79.74435,-0.89269 z m -269,-36.50819 c -1.65,-1.10454 -3.81752,-2.01122 -4.81672,-2.01484 -0.9992,-0.004 -3.2492,-1.07936 -5,-2.39052 -1.7508,-1.31117 -4.28357,-2.71936 -5.62838,-3.12931 -1.3448,-0.40996 -3.8198,-1.58159 -5.5,-2.60363 -1.68019,-1.02203 -4.01556,-2.283 -5.18971,-2.80214 -2.49709,-1.10408 -14.52778,-9.67269 -22.25747,-15.85242 -2.96575,-2.37107 -7.46575,-5.49969 -10,-6.9525 -5.24809,-3.00858 -19.12757,-13.58015 -23.60772,-17.98127 -5.71623,-5.61538 -12.01165,-13.13033 -14.5,-17.30886 -1.375,-2.30896 -3.52529,-5.38786 -4.77842,-6.84202 -3.76938,-4.37406 -4.06208,-4.80336 -7.03932,-10.32465 -8.88133,-16.47045 -9.56745,-28.10052 -2.96859,-50.31927 4.09571,-13.79049 5.92968,-19.08192 8.49152,-24.5 2.91786,-6.17103 12.55431,-21.14055 14.81879,-23.0199 0.81181,-0.67374 1.47602,-1.75506 1.47602,-2.40293 0,-0.64786 2.18253,-3.63026 4.85006,-6.62755 2.66753,-2.99729 5.56601,-6.83848 6.44105,-8.53597 0.87505,-1.69749 3.08002,-4.23912 4.89994,-5.64806 1.81992,-1.40894 4.2661,-3.47355 5.43596,-4.58802 2.05469,-1.95741 18.69501,-13.26064 26.85886,-18.24435 10.84257,-6.61896 22.67956,-12.16779 23.72553,-11.12182 1.04398,1.04398 -1.35301,3.24759 -3.91169,3.59612 -0.98984,0.13483 -2.24971,1.26681 -2.79971,2.51552 -0.55,1.2487 -3.06414,3.32226 -5.58699,4.60791 -7.83916,3.99485 -37.05126,34.81452 -46.38283,48.93534 -6.18966,9.36639 -13.98508,28.25564 -15.44692,37.42975 -2.10531,13.2124 -2.4677,28.41311 -0.80304,33.68457 0.85441,2.70566 1.85616,6.71939 2.22611,8.91939 0.36995,2.2 1.02344,4.45 1.4522,5 0.42875,0.55 1.33686,3.475 2.01801,6.5 2.30853,10.25221 9.44952,22.46128 23.28648,39.81331 2.33034,2.92233 8.28698,8.5061 13.23698,12.4084 4.95,3.9023 11.25,9.11808 14,11.59062 5.52993,4.97199 23.27284,17.00678 33.75286,22.89413 4.23647,2.37991 6.65482,4.3525 6.48978,5.29354 -0.39728,2.26521 -3.87544,2.2755 -7.24264,0.0214 z m 524.16667,-37.6881 c -1.21353,-1.21353 -0.7061,-2.22155 3.58333,-7.11838 2.3375,-2.66849 6.275,-7.25023 8.75,-10.18164 2.475,-2.93141 5.02095,-5.86442 5.65766,-6.5178 4.60388,-4.72443 13.03108,-23.03969 15.88123,-34.51551 1.00898,-4.06256 1.87402,-6.68639 2.47266,-7.5 1.39451,-1.89531 4.88944,-13.01011 5.50268,-17.5 0.33804,-2.475 0.84731,-10.41558 1.1317,-17.64573 0.44931,-11.42262 0.23545,-14.14944 -1.63157,-20.80309 -2.53899,-9.04841 -9.34832,-26.0024 -11.06555,-27.55118 -0.30491,-0.275 -1.61929,-2.3 -2.92085,-4.5 -5.33799,-9.02269 -21.15531,-26.76651 -26.77796,-30.03941 -2.897,-1.68633 -4.47028,-4.48427 -2.5,-4.44604 1.27772,0.0248 9.34324,2.98231 12.29289,4.50763 6.24374,3.22876 22.83309,18.69255 30.87171,28.77712 8.19033,10.27489 11.13746,14.9363 16.28994,25.76546 9.35571,19.66322 10.18393,33.99987 3.42603,59.30463 -1.99134,7.45653 -3.79637,11.60798 -7.38315,16.98078 -5.40606,8.09799 -6.77832,10.32753 -8.09361,13.14983 -0.51264,1.1 -1.99446,3.2003 -3.29294,4.66733 -3.5931,4.05952 -6.95994,7.93456 -10.58026,12.17728 -1.80434,2.11454 -3.28061,3.55386 -3.28061,3.19848 0,-0.35537 -1.0125,0.41573 -2.25,1.71357 -1.2375,1.29784 -4.05,3.68087 -6.25,5.29561 -2.2,1.61475 -4.35986,3.50107 -4.79969,4.19182 -0.43983,0.69075 -1.4365,1.25591 -2.21482,1.25591 -0.77832,0 -1.89679,0.9 -2.48549,2 -0.5887,1.1 -1.95072,2 -3.02671,2 -1.07599,0 -2.5184,0.9 -3.20536,2 -1.26424,2.02436 -2.88373,2.55087 -4.10126,1.33333 z M 413.5,537.38007 c -1.1,-0.15887 -8.075,-1.01062 -15.5,-1.89279 -7.425,-0.88217 -14.625,-1.80065 -16,-2.04107 -1.375,-0.24043 -7,-0.70027 -12.5,-1.02188 -5.5,-0.32161 -12.25,-1.18111 -15,-1.91 -2.75,-0.72889 -8.8982,-1.82501 -13.66267,-2.43581 -8.85294,-1.13494 -25.94885,-5.90867 -31.33733,-8.75038 -7.67094,-4.04541 -15.30136,-9.59675 -16.34783,-11.89351 -1.85501,-4.07129 -1.38389,-9.79156 1.11488,-13.53675 6.94226,-10.40518 31.71246,-19.73858 50.48295,-19.02196 1.8756,0.0716 3.25,0.65519 3.25,1.37997 0,1.40032 -3.04912,2.87527 -10.5,5.07918 -7.53144,2.22774 -18.388,7.62013 -20.52443,10.19436 -0.70437,0.84872 -1.45399,3.70506 -1.66582,6.34743 l -0.38515,4.8043 5.9423,3.16721 c 5.46833,2.91459 11.09203,4.49644 20.1331,5.66308 9.74211,1.25711 19.56941,2.93838 29.5,5.04691 12.47209,2.64816 26.58694,4.99424 27.8402,4.62743 0.46211,-0.13526 8.78711,0.64083 18.5,1.72464 9.71289,1.0838 21.4848,2.21089 26.1598,2.50463 4.675,0.29373 9.85,0.76081 11.5,1.03795 1.65,0.27713 6.375,0.70451 10.5,0.94972 4.125,0.24522 8.76679,0.92992 10.3151,1.52156 1.5483,0.59164 5.45925,1.07571 8.69098,1.07571 6.31859,0 7.63028,0.76652 5.71189,3.3379 -1.01904,1.3659 -4.07626,1.7125 -18.71797,2.12207 -17.92786,0.50148 -44.36082,1.50562 -51.5,1.95639 -2.2,0.1389 -4.9,0.12257 -6,-0.0363 z M 550,512.5514 c 1.375,-0.31987 5.425,-1.02099 9,-1.55802 12.50002,-1.87775 14.17781,-2.29318 14.694,-3.63834 C 573.97999,506.60977 575.29083,506 576.60699,506 577.92314,506 579,505.58032 579,505.06739 c 0,-0.76123 2.69244,-2.13984 5,-2.56015 3.48758,-0.63524 16.34087,-10.10523 24.07517,-17.738 9.99943,-9.86815 13.82452,-14.745 15.95016,-20.33586 0.81025,-2.13111 0.64876,-2.42756 -1.30008,-2.38654 -1.50653,0.0317 -3.3557,1.65633 -5.72525,5.03001 -1.925,2.74074 -6.65,7.60884 -10.5,10.818 -3.85,3.20915 -8.83228,7.58315 -11.07173,9.71999 -4.52578,4.3184 -14.89677,10.94105 -20.71714,13.22942 -2.58596,1.01671 -3.38233,1.74092 -2.50836,2.28106 2.21261,1.36747 -0.7981,3.28726 -4.95277,3.15815 -5.37218,-0.16694 -13.56257,1.77593 -14.84441,3.52129 -0.78156,1.06418 -1.92441,1.28184 -3.99795,0.76142 -1.59695,-0.40081 -2.52651,-0.35467 -2.0657,0.10254 0.46081,0.4572 -3.14011,1.36308 -8.00205,2.01306 l -8.83989,1.18179 9,-0.36528 c 4.95,-0.20091 10.125,-0.62701 11.5,-0.94689 z m 8.5,-4.12153 c 6.26793,-1.7441 8.11499,-1.7071 3.5,0.0701 -1.925,0.74131 -4.625,1.34184 -6,1.3345 -1.49755,-0.008 -0.4951,-0.57122 2.5,-1.40463 z m -7.3125,0.88702 c -0.72187,-0.28887 -1.58438,-0.25335 -1.91667,0.0789 -0.33229,0.33229 0.25834,0.56864 1.3125,0.52522 1.16495,-0.048 1.4019,-0.28494 0.60417,-0.60416 z m -80.23742,-4.84564 c 6.29755,-0.83193 13.49755,-2.1525 16,-2.9346 8.94808,-2.79655 22.5214,-7.72903 25.50926,-9.26993 9.15881,-4.7234 26.34871,-20.33824 36.54066,-33.19254 1.925,-2.42785 4.65469,-5.80026 6.06598,-7.49423 1.41129,-1.69397 5.23629,-6.58629 8.5,-10.87183 3.26371,-4.28553 7.41492,-9.68553 9.22491,-12 6.54508,-8.36932 13.21174,-18.66204 17.07127,-26.35649 C 596.96057,388.2001 604,373.02578 604,371.87585 c 0,-0.62034 1.5605,-5.02822 3.46777,-9.7953 6.11388,-15.28115 7.25349,-21.48344 10.31297,-56.12791 0.98068,-11.10481 -0.87878,-29.64766 -3.7258,-37.15427 -2.89462,-7.63214 -9.67307,-15.00998 -16.85042,-18.34042 -5.48421,-2.5448 -8.95785,-3.34459 -32.27226,-7.43063 -5.81226,-1.01864 -12.33726,-2.32453 -14.5,-2.90198 -2.16274,-0.57744 -7.75726,-1.30152 -12.43226,-1.60906 -4.675,-0.30754 -11.875,-0.84306 -16,-1.19004 -9.97284,-0.83887 -18.14071,-0.82818 -32,0.0419 -12.26327,0.76988 -37.81656,-0.49378 -57.5,-2.84349 -6.6,-0.78788 -16.95,-1.9413 -23,-2.56316 -6.05,-0.62186 -14.15,-1.73079 -18,-2.46428 -6.34833,-1.20947 -17,-2.83718 -17,-2.59781 0,0.0533 -4.725,-1.21912 -10.5,-2.82763 -5.775,-1.60851 -16.35,-4.5228 -23.5,-6.4762 -7.15,-1.9534 -14.35,-3.985 -16,-4.51466 -1.65,-0.52966 -5.925,-1.46095 -9.5,-2.06953 -8.45611,-1.43951 -15.54064,-3.75296 -17.04548,-5.56618 -0.65968,-0.79486 -2.62931,-1.4452 -4.37696,-1.4452 -1.74766,0 -3.60506,-0.39019 -4.12756,-0.86709 -0.5225,-0.47689 -3.06222,-1.56596 -5.64382,-2.42015 -3.55451,-1.17611 -4.92854,-1.26905 -5.66087,-0.38292 -2.36861,2.86607 -5.55989,14.19063 -6.66075,23.63633 -1.62044,13.90385 0.1101,47.13825 3.53166,67.82418 2.22846,13.47275 13.00711,52.96535 18.34341,67.20965 3.0278,8.08216 24.94108,51.45301 29.94609,59.26942 2.03185,3.17318 3.69428,6.15716 3.69428,6.63108 0,1.39189 11.95776,17.15187 17.24691,22.73092 2.67563,2.82227 5.93821,6.64727 7.25018,8.5 2.97028,4.19455 35.69204,38.61501 36.84854,38.76148 0.4651,0.0589 2.15522,1.03961 3.75584,2.17935 3.5839,2.55197 15.10299,5.94855 17.79039,5.24578 1.08681,-0.28421 3.5907,0.0162 5.56422,0.66747 8.8957,2.93585 38.51439,3.72884 55.494,1.48575 z M 602,493.5 c 0.68469,-0.825 1.01989,-1.5 0.74489,-1.5 -0.275,0 -1.0602,0.675 -1.74489,1.5 -0.68469,0.825 -1.01989,1.5 -0.74489,1.5 0.275,0 1.0602,-0.675 1.74489,-1.5 z m -12.10464,-18.87736 c 1.31745,-1.40855 2.71981,-2.36048 3.11635,-2.1154 0.39655,0.24508 1.56864,-0.55629 2.60464,-1.78082 L 597.5,468.5 l -2.5,2 -2.5,2 1.84396,-2.18256 c 1.01417,-1.20041 2.36417,-1.98451 3,-1.74244 1.23504,0.4702 27.76738,-25.88133 31.53993,-31.325 1.23876,-1.7875 2.78416,-3.26258 3.4342,-3.27796 C 633.57472,433.94231 651,408.02435 651,406.18501 c 0,-0.5971 0.6274,-1.44549 1.39421,-1.88532 1.40434,-0.8055 8.13902,-12.37942 11.52112,-19.79969 15.93534,-34.96185 27.29814,-79.91292 28.7598,-113.77345 0.43176,-10.002 0.28088,-15.49257 -0.46715,-17 -0.60769,-1.2246 -1.27221,-3.12655 -1.47672,-4.22655 -0.63437,-3.41214 -2.89454,9.21733 -2.60976,14.58291 0.15579,2.93519 -0.20091,5.34814 -0.8499,5.74923 -0.6151,0.38015 -1.4369,3.61094 -1.82623,7.17952 -0.38932,3.56859 -0.97491,6.93834 -1.3013,7.48834 -0.32638,0.55 -0.73031,1.99454 -0.89761,3.21008 -0.16731,1.21555 -1.1912,4.98667 -2.27532,8.38027 -1.08413,3.39361 -1.97142,6.67407 -1.97176,7.28992 -10e-4,1.81624 -6.41079,21.03752 -12.04494,36.11973 -2.87644,7.7 -5.29337,14.675 -5.37097,15.5 -0.0776,0.825 -1.13838,3.39019 -2.35731,5.70043 -1.21893,2.31024 -2.93935,6.36024 -3.82316,9 -2.16925,6.47909 -12.37946,26.95155 -16.23977,32.56232 -1.71522,2.49299 -4.55003,7.16622 -6.2996,10.38497 -4.80752,8.84464 -17.32646,26.23772 -27.96454,38.85228 -6.14726,7.28939 -17.06748,21.30117 -19.52828,25.05683 -1.75822,2.68338 -1.75471,2.71885 0.16657,1.68397 1.07944,-0.58144 3.04053,-2.20961 4.35798,-3.61816 z m 90.83066,-14.66624 c 3.72569,-1.22244 7.23501,-2.58361 7.7985,-3.02482 0.56348,-0.44121 3.19538,-1.53923 5.84865,-2.44004 4.3048,-1.46152 9.38908,-4.08768 20.62683,-10.65431 9.70205,-5.66927 35.65804,-30.43766 40.29969,-38.45582 0.95576,-1.651 1.16955,-1.5343 -3.79969,-2.07417 -10.48398,-1.13901 -10.75493,-1.07806 -13.01741,2.9281 -2.06083,3.64913 -10.4227,12.77095 -16.28465,17.76466 -1.61407,1.375 -5.8064,5.03123 -9.3163,8.12496 -10.38642,9.15488 -23.54045,17.84647 -37.13164,24.53489 -7.0125,3.45095 -12.75,6.43892 -12.75,6.63993 0,0.86647 11.5146,-1.30534 17.72602,-3.34338 z M 650,431.94098 c 0,-0.58246 -0.45,-0.7809 -1,-0.44098 -0.55,0.33992 -1,0.81648 -1,1.05902 0,0.24254 0.45,0.44098 1,0.44098 0.55,0 1,-0.47656 1,-1.05902 z m 14.00904,-12.94814 C 666.08736,417.34678 668.09438,416 668.46907,416 c 1.18675,0 14.6574,-8.26502 24.01411,-14.73402 4.95925,-3.42871 12.16682,-8.40058 16.01682,-11.0486 12.731,-8.75635 42.85507,-33.46437 51.78805,-42.47701 7.89675,-7.96718 17.66858,-19.54818 21.71195,-25.73176 1.42998,-2.18689 4.33563,-5.76023 7.32531,-9.00861 2.73464,-2.97127 4.63615,-6.68069 8.97079,-17.5 6.40568,-15.98864 8.85105,-29.38821 8.80955,-48.27249 -0.0144,-6.53629 -0.57369,-9.13712 -3.55572,-16.53404 -4.37027,-10.84046 -7.56015,-16.53682 -9.63759,-17.21041 -0.87321,-0.28313 -3.10801,-1.87215 -4.96621,-3.53116 -10.056,-8.97799 -23.64903,-11.44339 -46.37949,-8.41196 -4.39283,0.58585 -23.29326,8.46566 -28.30981,11.80269 -3.08609,2.05289 -3.24349,2.46337 -3.25,8.47546 l -0.007,6.3181 2.80815,-1.99958 c 15.35001,-10.93017 35.52878,-14.23148 48.02401,-7.85688 2.93269,1.49615 6.19959,2.72027 7.25979,2.72027 1.06019,0 2.69823,0.9 3.64008,2 0.94185,1.1 2.23858,2 2.88163,2 0.64305,0 1.90841,1.84751 2.81191,4.10557 0.90349,2.25807 2.2323,4.69515 2.95289,5.41575 0.7206,0.72059 2.10609,4.58486 3.07887,8.58726 2.94178,12.10357 0.86553,25.58716 -6.37359,41.39142 -7.56941,16.52534 -10.72382,22.02043 -12.46023,21.70616 C 764.73058,306.04455 764,306.4142 764,307.02759 c 0,0.6134 -0.5625,1.68686 -1.25,2.38548 -0.6875,0.69861 -2.375,2.76103 -3.75,4.58315 -4.59228,6.08559 -7.46841,9.56177 -11.47723,13.87173 -2.18747,2.3518 -4.68433,5.35392 -5.54857,6.67138 -3.0106,4.58939 -31.7013,29.64057 -35.7242,31.19245 -0.6875,0.26521 -1.25,1.03682 -1.25,1.71469 0,0.67788 -1.21278,1.78508 -2.69506,2.46045 -1.48228,0.67537 -5.77508,3.3351 -9.53955,5.91052 -3.76447,2.57541 -9.25535,6.25756 -12.20197,8.18256 -14.18481,9.26683 -16.01689,10.92361 -21.06342,19.04812 -2.75,4.42728 -7.09097,11.34525 -9.64659,15.37326 -7.92163,12.48556 -8.02799,12.02714 1.74755,7.5322 4.74612,-2.18234 10.32975,-5.31467 12.40808,-6.96074 z m 0.43755,6.50716 c 5.19142,-2.475 9.75973,-4.5 10.15179,-4.5 0.39206,0 2.10531,-1.04458 3.80723,-2.3213 1.70191,-1.27671 5.56939,-3.67611 8.59439,-5.332 12.38994,-6.78224 28.93803,-16.74201 28.51673,-17.1633 -0.24783,-0.24784 -3.72799,1.50302 -7.73367,3.8908 -4.00568,2.38778 -9.53306,5.53568 -12.28306,6.99532 -2.75,1.45964 -7.25,3.89369 -10,5.40899 -2.75,1.5153 -10.175,5.48066 -16.5,8.81192 -18.26452,9.61958 -20.78104,11.94607 -4.55341,4.20957 z m 54.74091,-31.18311 c -0.72187,-0.28887 -1.58438,-0.25335 -1.91667,0.0789 -0.33229,0.33229 0.25834,0.56864 1.3125,0.52522 1.16495,-0.048 1.4019,-0.28494 0.60417,-0.60416 z M 701.5,345.18982 c 13.679,-8.84288 22.05488,-15.89712 42.83814,-36.07862 11.80518,-11.46338 25.49298,-31.72786 31.243,-46.25454 4.97996,-12.58125 2.83191,-26.89621 -5.19296,-34.60666 -2.43281,-2.3375 -5.0904,-4.25 -5.90574,-4.25 C 763.6671,224 763,223.58193 763,223.07096 c 0,-1.62916 -11.27426,-4.28071 -17.79598,-4.18536 -9.0629,0.13249 -18.04461,2.49769 -25.02861,6.5909 -3.34575,1.96089 -6.36003,4.0132 -6.69839,4.56069 -0.33837,0.54749 -1.03412,0.73654 -1.54612,0.4201 -0.53027,-0.32772 -0.96894,1.9247 -1.0193,5.23369 -0.16428,10.79606 -0.66751,20.20747 -1.44498,27.024 -0.42564,3.73176 -0.85732,9.93502 -0.95929,13.78502 -0.10198,3.85 -0.90191,9.7 -1.77763,13 -0.87572,3.3 -1.89494,8.25 -2.26493,11 -0.79194,5.88614 -5.03444,21.69629 -6.98401,26.02665 -1.71778,3.81551 -6.37996,16.62561 -8.0885,22.22447 l -1.29727,4.25112 3.2025,-1.64361 c 1.76138,-0.90398 6.35251,-3.67995 10.20251,-6.16881 z m -216,-121.07649 c 7.60512,-1.39649 15.83145,-1.45864 15,-0.11333 -0.52308,0.84636 3.97015,1.57666 6.79301,1.10408 0.43616,-0.073 4.03616,-0.37262 8,-0.66579 C 525.17142,223.70768 542,220.86459 542,219.9263 c 0,-0.42249 -17.2125,-0.81545 -38.25,-0.87325 -21.0375,-0.0578 -40.275,-0.29681 -42.75,-0.53114 -2.475,-0.23433 -14.68307,-0.67676 -27.12905,-0.98319 -12.44598,-0.30643 -26.17098,-1.00592 -30.5,-1.55442 -4.32902,-0.5485 -9.89595,-1.24827 -12.37095,-1.55504 -2.475,-0.30678 -7.65,-1.17244 -11.5,-1.92371 -3.85,-0.75126 -9.32632,-1.61323 -12.16959,-1.91547 -5.59109,-0.59435 -21.55704,-3.98723 -25.43819,-5.4058 -1.31572,-0.4809 -6.66722,-1.67099 -11.89222,-2.64464 -5.225,-0.97366 -11.75,-2.79834 -14.5,-4.05486 -2.75,-1.25652 -9.68398,-3.79213 -15.40884,-5.63468 -6.22343,-2.00302 -10.5771,-3.95325 -10.82728,-4.8501 -0.23015,-0.825 -2.29617,-2.70735 -4.59116,-4.18301 -6.95831,-4.47411 -15.32843,-12.53625 -18.69424,-18.00639 -8.79558,-14.29464 -7.16529,-24.45389 5.95448,-37.10565 3.82414,-3.68772 7.24865,-6.70495 7.61001,-6.70495 0.36137,0 2.23203,-1.575 4.15703,-3.5 1.925,-1.925 4.06001,-3.5 4.74446,-3.5 0.68445,0 2.55195,-1.13275 4.15,-2.51722 1.59805,-1.38447 4.93054,-3.49093 7.40554,-4.68104 2.475,-1.1901 4.82109,-2.64486 5.21353,-3.23278 0.39243,-0.58793 0.84243,-0.92741 1,-0.75441 0.45865,0.5036 3.70499,-0.78247 12.78647,-5.065468 4.675,-2.204821 12.325,-5.120632 17,-6.479581 16.15755,-4.696744 26.02843,-7.21717 30.75509,-7.852986 6.85236,-0.921759 7.90096,-1.162071 10.02058,-2.29646 1.04801,-0.560877 2.76472,-0.970497 3.8149,-0.910266 2.1156,0.121333 16.48578,-2.859075 20.40943,-4.232962 1.375,-0.481464 5.65,-1.131685 9.5,-1.444936 3.85,-0.313251 8.125,-0.793665 9.5,-1.067587 1.375,-0.273922 3.625,-0.726946 5,-1.006719 3.75169,-0.763363 16.53032,-2.417399 24.98751,-3.234325 6.07799,-0.587107 7.55259,-1.062408 7.83326,-2.524845 0.31742,-1.65396 -0.33709,-1.755919 -7.98751,-1.244292 -10.8194,0.723555 -17.81562,1.409318 -25.83326,2.532152 -3.575,0.500663 -8.525,1.167006 -11,1.480764 -2.475,0.313758 -6.15482,0.780088 -8.17738,1.036289 C 383.40085,74.21687 359.65014,80.589633 331,91.311331 c -3.575,1.337867 -9.875,3.689879 -14,5.226693 -4.125,1.536814 -8.625,3.562756 -10,4.502096 -1.375,0.93933 -4.75,2.70397 -7.5,3.92142 -15.51224,6.86739 -26.31455,13.67473 -33.16198,20.89783 -15.49727,16.34749 -18.27498,27.02432 -10.94474,42.06884 4.30244,8.83029 5.33619,10.06063 12.00137,14.28371 2.80794,1.77913 5.72489,4.07928 6.48211,5.11144 1.74443,2.37785 25.67954,13.90658 34.19358,16.4699 17.58333,5.29379 22.95194,6.78892 41.92966,11.67717 24.29041,6.25669 46.18034,9.09656 72.44905,9.39912 9.32197,0.10737 17.10849,0.35465 17.30336,0.54953 0.8263,0.8263 40.26736,-0.29944 45.74759,-1.30575 z m 40,-9.45673 c 18.68545,-1.06227 25.661,-1.59728 28.5,-2.1859 1.375,-0.28509 5.65,-0.94378 9.5,-1.46375 6.19812,-0.83712 22.19379,-4.01668 34.17651,-6.79349 2.29708,-0.53231 9.04708,-2.85923 15,-5.17093 5.95292,-2.3117 12.84849,-4.96669 15.32349,-5.89999 3.7975,-1.43199 4.54531,-2.16099 4.79021,-4.66972 0.24023,-2.46078 -0.69384,-3.9632 -5.42306,-8.72282 -3.1423,-3.1625 -6.06719,-5.75 -6.49974,-5.75 -0.43256,0 -1.81718,-1.06581 -3.07694,-2.36848 -2.62071,-2.70996 -12.86855,-8.20993 -17.22382,-9.24395 -1.61334,-0.38303 -4.08834,-1.29916 -5.5,-2.03583 -1.41166,-0.73668 -3.83373,-1.34219 -5.38239,-1.34558 -1.54866,-0.003 -3.58884,-0.41991 -4.53375,-0.92561 -6.56416,-3.51303 -29.4384,-3.12395 -53.65051,0.91258 -27.99319,4.6669 -35.78104,7.73732 -46.72335,18.42106 l -4.00893,3.9142 0.68472,8.75284 c 0.75615,9.66588 -0.46111,13.80662 -4.71279,16.03146 -4.08987,2.14016 -12.73968,8.07159 -12.73762,8.73455 0.003,0.87631 45.19441,0.73622 61.49797,-0.19064 z m -96.3524,-2.62129 c 7.43605,-0.94302 25.88881,-9.10386 29.32825,-12.9706 2.11398,-2.3766 2.40463,-6.68255 1.02973,-15.2552 -1.32457,-8.25886 0.89147,-12.16588 11.45863,-20.20227 10.15635,-7.72397 21.53417,-12.58486 33.03579,-14.11373 2.475,-0.32899 8.775,-1.21656 14,-1.97237 5.225,-0.75582 14.45,-1.91435 20.5,-2.57453 6.05,-0.66017 11.675,-1.3338 12.5,-1.49695 0.825,-0.16315 4.875,-0.35959 9,-0.43654 8.60475,-0.1605 7.04776,-1.55885 -2.69115,-2.41695 -3.19487,-0.28151 -7.15885,-0.70836 -8.80885,-0.94858 -20.15856,-2.93475 -35.62541,-3.85097 -48.4094,-2.86765 -15.40027,1.18456 -17.86492,1.52208 -31.0906,4.25769 -12.98907,2.68666 -23.04655,5.38173 -26.01784,6.97192 -1.36519,0.73062 -2.48216,1.15118 -2.48216,0.93456 0,-0.34943 -2.52892,0.50525 -9,3.04165 -7.56786,2.9663 -15.73821,7.50161 -17.46199,9.69305 -3.12614,3.97424 -2.6394,7.88831 1.46199,11.75642 2.7142,2.55982 3.5,4.0926 3.5,6.82709 0,5.19229 -4.18017,9.07613 -14.15196,13.14875 C 396.02466,197.01467 374.63583,204 372.42514,204 c -0.71891,0 -1.57459,0.4328 -1.90152,0.96178 -0.32692,0.52897 1.83442,1.66785 4.80299,2.53084 8.0045,2.32697 8.92452,2.48048 24.64313,4.11181 7.95836,0.82595 14.5821,1.61408 14.71944,1.75141 0.29669,0.29669 5.33339,-0.16333 14.45842,-1.32053 z M 617,207.58687 c 3.575,-0.81524 9.48372,-2.13004 13.13049,-2.92176 7.19383,-1.56182 17.14573,-6.38583 34.44666,-16.69745 14.34596,-8.5504 24.53601,-16.84445 28.63105,-23.30384 4.68998,-7.39783 4.96131,-8.32493 4.92777,-16.8376 -0.0313,-7.94136 -0.22478,-8.47742 -8.30737,-23.01467 -3.31769,-5.96715 -12.56721,-14.16131 -20.96823,-18.57576 -2.9482,-1.54918 -7.32393,-4.07387 -9.72385,-5.61042 -2.39991,-1.536551 -6.22491,-3.598955 -8.5,-4.583121 -2.27508,-0.984166 -7.97124,-3.618847 -12.65812,-5.854846 C 629.14151,85.971531 624,84.455684 624,86.066221 624,86.579799 624.45221,87 625.0049,87 c 0.5527,0 3.33692,1.125 6.18716,2.5 2.85023,1.375 5.73553,2.5 6.41176,2.5 0.67623,0 1.37951,0.3375 1.56285,0.75 0.18333,0.4125 1.90833,1.527752 3.83333,2.478338 12.34429,6.095742 21.0391,11.780312 28.34461,18.531382 C 676.3294,118.36619 684.49781,128 683.4188,128 c -0.42208,0 0.16788,1.0125 1.31104,2.25 2.33302,2.52557 4.33346,8.82503 3.75549,11.82619 -0.21463,1.11449 0.0468,1.71296 0.5992,1.37157 0.59953,-0.37053 0.78568,0.68669 0.47949,2.72329 C 687.70466,158.53836 687.31467,160 685.87418,160 c -0.54508,0 -2.87725,2.08434 -5.18261,4.63186 -8.26699,9.13538 -24.03086,19.90603 -42.69157,29.16898 -6.875,3.41266 -13.175,6.61237 -14,7.11047 -0.825,0.49809 -5.6625,2.58348 -10.75,4.63419 -5.0875,2.05072 -9.25,3.95079 -9.25,4.22238 0,0.56306 3.65759,-0.0506 13,-2.18101 z M 310.29122,184.25 c 0.89052,-3.1625 2.70045,-6.875 4.02206,-8.25 3.0786,-3.20295 7.54639,-7 8.23653,-7 0.56196,0 2.4005,-1.43173 5.2482,-4.08696 C 329.94485,162.91131 338.65846,157 339.46229,157 c 0.33107,0 2.27499,-0.73315 4.31983,-1.62923 3.75004,-1.64332 10.62259,-4.22837 28.43994,-10.69746 8.23315,-2.98928 15.93442,-5.20321 28.90189,-8.3086 3.2707,-0.78325 21.9991,-3.89767 42.37605,-7.04689 5.83062,-0.9011 56.83229,-1.05936 70,-0.2172 4.95,0.31658 11.7,1.06651 15,1.6665 3.3,0.6 8.475,1.36386 11.5,1.69748 5.57239,0.61456 9.5,1.25171 9.5,1.54112 0,0.0873 1.35,0.36632 3,0.62003 4.11227,0.63231 17.54947,4.26534 20,5.40741 1.1,0.51266 4.25,1.41467 7,2.00447 5.59951,1.20092 15.5,5.72304 15.5,7.07972 0,0.48546 0.52337,0.88265 1.16304,0.88265 0.63967,0 5.89931,2.5875 11.68808,5.75 7.76196,4.24049 12.31333,7.5641 17.33696,12.66024 6.67687,6.77323 8.27576,7.7535 5.34103,3.27453 -1.41532,-2.16005 -1.14892,-2.52706 7.0517,-9.71481 l 8.52259,-7.46996 -0.53655,-8.69013 c -0.53575,-8.67739 -3.13493,-16.19553 -6.26083,-18.10956 C 638.58771,127.26048 638,126.49802 638,126.00596 c 0,-0.49206 -1.57285,-2.6072 -3.49522,-4.70031 -1.92237,-2.09311 -3.49737,-4.43296 -3.5,-5.19967 -0.003,-0.76672 -1.69228,-2.90512 -3.75478,-4.75201 C 623.55086,108.04154 606.68199,97 605.32051,97 604.93503,97 601.89272,95.690837 598.55982,94.09075 593.44021,91.632885 587.12121,89.031427 576.5,85.008979 572.40465,83.457994 560.3815,80.045814 557,79.474862 551.21603,78.498262 549.5,78.160808 549.5,78 c 0,-0.191022 -2.72543,-0.684583 -8.35677,-1.513366 C 535.21429,75.614051 465.58046,75.46574 455,76.30316 c -9.87497,0.781583 -12.92933,1.180998 -15,1.961533 -2.16786,0.817169 -10.09903,1.686187 -20.99753,2.300696 -5.22636,0.294687 -11.52747,0.957097 -14.00247,1.472023 -2.475,0.514926 -5.625,1.147959 -7,1.406741 -1.375,0.258782 -6.775,1.417861 -12,2.575732 -5.225,1.157871 -10.4,2.244641 -11.5,2.415044 -1.1,0.170404 -2,0.408481 -2,0.52906 0,0.12058 -1.57159,0.440464 -3.49242,0.710855 -1.92084,0.270391 -3.72084,0.849702 -4,1.287358 -0.27917,0.437656 -2.87008,1.117429 -5.75758,1.510606 -3.13268,0.426562 -5.25,1.215937 -5.25,1.957294 0,0.717438 -3.0635,1.969479 -7.25,2.963052 -15.82925,3.756716 -27.80685,8.748826 -42.25,17.609256 -19.21153,11.78569 -28.45323,29.27185 -23.51764,44.49759 2.76432,8.52764 3.55904,10.04602 7.82131,14.94344 5.5993,6.43368 16.2128,15.43385 18.28238,15.50332 1.09229,0.0367 2.0901,-1.73682 3.20517,-5.69676 z M 622.5,84 c -0.33992,-0.55 -1.28524,-1 -2.10072,-1 -0.81547,0 -4.27642,-1.29141 -7.69098,-2.8698 -5.29292,-2.446665 -12.27275,-5.112251 -14.9583,-5.712552 -0.4125,-0.09221 -1.0875,-0.277187 -1.5,-0.411069 -0.4125,-0.133882 -1.04902,-0.202959 -1.41449,-0.153505 -0.36546,0.04945 -2.84046,-0.510412 -5.5,-1.244145 C 586.67598,71.875195 583.6,71.233461 582.5,71.182853 c -2.35299,-0.108255 -7.13449,-0.827844 -10.09818,-1.51972 -1.154,-0.269402 -4.529,-0.780459 -7.5,-1.135682 C 561.93082,68.172228 554.775,67.16802 549,66.295878 c -12.35393,-1.865693 -31.54847,-2.147412 -33.20848,-0.487402 -1.66514,1.665146 0.13393,2.025584 13.20848,2.646269 6.325,0.300265 12.625,0.742248 14,0.982184 1.375,0.239935 6.325,0.931024 11,1.535753 12.65133,1.636497 27.1148,4.04666 30.39654,5.065215 1.5931,0.494451 3.2713,0.667389 3.72934,0.384308 0.45803,-0.283081 1.79639,10e-4 2.97413,0.631319 1.65077,0.883466 1.97094,0.870297 1.39754,-0.05748 -0.40909,-0.661923 0.43313,-0.43234 1.87161,0.510183 1.43847,0.942523 3.31725,1.444354 4.17506,1.115181 0.89601,-0.343833 1.29969,-0.177864 0.9487,0.390048 C 599.12491,79.606909 600.67137,80 603.38197,80 c 2.475,0 4.80234,0.489203 5.17187,1.087118 0.36953,0.597915 1.52109,0.865044 2.55902,0.59362 C 612.15079,81.409314 613,81.550408 613,81.99428 c 0,0.443873 1.6875,1.255235 3.75,1.803028 5.05561,1.342752 6.48575,1.393165 5.75,0.202692 z"
     id="path2987"
     style="fill:#333333" />
</svg>
